# WaveFront *.obj file (generated by CINEMA 4D)

v 0.0000114440918 -27.88308906555176 4.23876953125
v 20.15056228637695 15.78792762756348 4.23877477645874
v 20.15056228637695 15.78792762756348 -0.86349046230316
v 0.0000114440918 -27.88308906555176 -0.863485455513
v 0.0000114440918 27.88308906555176 4.23877477645874
v 0.0000114440918 27.88308906555176 -0.86349046230316
v 10.07529067993164 15.78792762756348 -0.86349046230316
v 10.07529067993164 15.78792762756348 4.23877477645874
v -20.15056228637695 15.78792762756348 4.23877477645874
v -20.15056228637695 15.78792762756348 -0.86349046230316
v -10.07528305053711 15.78792762756348 -0.86349046230316
v -10.07528305053711 15.78792762756348 4.23877477645874
v 9.37233352661133 5.27581977844238 5.68430089950562
v 9.37233352661133 0.6324462890625 5.68429946899414
v 9.37233352661133 5.27581977844238 4.39590787887573
v 9.37233352661133 0.6324462890625 4.39590787887573
v -5.58088302612305 2.95413208007812 4.44106864929199
v -5.58088302612305 2.95413208007812 5.63913869857788
v -9.37231826782227 5.27581977844238 5.68430089950562
v -9.37231826782227 0.6324462890625 5.68429946899414
v -9.37231826782227 5.27581977844238 4.39590787887573
v -9.37231826782227 0.6324462890625 4.39590787887573
v 5.58089828491211 2.95413208007812 4.44106864929199
v 5.58088302612305 2.95413208007812 5.63913869857788
v -13.24078750610352 11.2231273651123 5.76369428634644
v -16.05536270141602 12.79510307312012 5.76369428634644
v -12.68636703491211 13.13015174865723 5.76369619369507
v -14.72244644165039 14.2673168182373 5.76369619369507
v -12.68638229370117 13.13015556335449 4.39590787887573
v -14.72245407104492 14.26732063293457 4.39590787887573
v -13.24081039428711 11.22314262390137 4.39590787887573
v -16.05537033081055 12.79511070251465 4.39590787887573
v -15.26542282104492 10.90378379821777 5.76369428634644
v -15.26543045043945 10.9037914276123 4.39590787887573
v 13.24080276489258 11.2231273651123 5.76369428634644
v 16.05536270141602 12.79510307312012 5.76369428634644
v 12.68637466430664 13.13015174865723 5.76369619369507
v 14.72244644165039 14.2673168182373 5.76369619369507
v 12.68639755249023 13.13015556335449 4.39590787887573
v 14.72247695922852 14.26732063293457 4.39590787887573
v 13.24082565307617 11.22314262390137 4.39590787887573
v 16.05538558959961 12.79511070251465 4.39590787887573
v 15.26542282104492 10.90378379821777 5.76369428634644
v 15.26545333862305 10.9037914276123 4.39590787887573
v 5.76638412475586 1.51661491394043 -6.12306022644043
v -5.76637268066406 1.51661491394043 -6.12306022644043
v 5.76643753051758 -1.0030574798584 -6.12306022644043
v -5.76639938354492 -1.0030574798584 -6.12306022644043
v 2.93784713745117 1.51661491394043 -4.32854080200195
v -2.93782424926758 1.51661491394043 -4.32854080200195
v -2.93782424926758 -1.0030574798584 -4.32854080200195
v 2.93784713745117 -1.0030574798584 -4.32854080200195
v -5.76637649536133 -1.0030574798584 -0.86435043811798
v -2.93784713745117 -1.0030574798584 -0.86435043811798
v -5.76636123657227 1.51661491394043 -0.86435043811798
v -2.93784713745117 1.51661491394043 -0.86435043811798
v 5.76638412475586 -1.0030574798584 -0.86435043811798
v 2.93784713745117 -1.0030574798584 -0.86435043811798
v 5.7663688659668 1.51661491394043 -0.86435043811798
v 2.93784713745117 1.51661491394043 -0.86435043811798
v 1.82355117797852 8.58444023132324 4.45627307891846
v 2.41782760620117 -1.61239242553711 4.52669858932495
v 6.25994491577148 3.0604133605957 4.49148511886597
v 1.82355117797852 16.5880069732666 4.39590787887573
v 1.82355117797852 16.5880069732666 6.12306022644043
v 1.82355117797852 8.58444023132324 6.12306022644043
v 6.25994491577148 3.0604133605957 6.12305927276611
v 0.0000114440918 -16.12288665771484 6.12305641174316
v 0.0000114440918 -16.12288665771484 4.5971245765686
v 2.41782760620117 -1.61239242553711 6.12305688858032
v -1.82353591918945 16.5880069732666 6.12306022644043
v -1.82353591918945 16.5880069732666 4.39590787887573
v -1.82353591918945 8.58444023132324 6.12306022644043
v -2.41781997680664 -1.61239242553711 6.12305688858032
v -6.25993728637695 3.0604133605957 6.12305927276611
v -1.82353591918945 8.58444023132324 4.45627307891846
v -2.41781234741211 -1.61239242553711 4.52669858932495
v -6.25993347167969 3.0604133605957 4.49148511886597
v -1.62418746948242 -20.81933975219727 5.76369428634644
v 1.38289260864258 -21.98142242431641 5.76369428634644
v -0.51070022583008 -19.17488098144531 5.76369619369507
v 1.66463851928711 -20.01553726196289 5.76369619369507
v -0.51067733764648 -19.17488861083984 4.39590787887573
v 1.66463851928711 -20.01553726196289 4.39590787887573
v -1.6241569519043 -20.81934547424316 4.39590787887573
v 1.38290786743164 -21.98142623901367 4.39590787887573
v -0.57700729370117 -22.58131217956543 5.76369428634644
v -0.57698440551758 -22.58132362365723 4.39590787887573
v -1.62418746948242 22.24041938781738 5.76369428634644
v 1.38289260864258 21.07832908630371 5.76369428634644
v -0.51070022583008 23.88486671447754 5.76369619369507
v 1.66463851928711 23.04421043395996 5.76369619369507
v -0.51067733764648 23.88486671447754 4.39590787887573
v 1.66463851928711 23.04421043395996 4.39590787887573
v -1.6241569519043 22.24040794372559 4.39590787887573
v 1.38290786743164 21.07832908630371 4.39590787887573
v -0.57700729370117 20.47844123840332 5.76369428634644
v -0.57698440551758 20.47842979431152 4.39590787887573
# 98 vertices

vn 0 0 1
vn 0 -0.00000008632058 1
vn 0 1 0
vn 0 -0.00000034143343 1
vn 0 -0.00000027154363 1
vn 0 -0.00000003286154 1
vn 0 0 0
vn -0.94331455230713 0.33190006017685 -0.00000048312074
vn -1 0 0
vn -0.99998342990875 -0.00575753767043 -0.0000023989428
vn -0.98640042543411 -0.16436012089252 -0.00000235542234
vn -0.91036570072174 -0.41380459070206 -0.00000267465884
vn 0.00000004791286 -0.00000078524124 1
vn -0.0000002721402 -0.00000070421709 1
vn -0.0000005635066 -0.00000054895696 1
vn 0.29268097877502 -0.95621013641357 0.00000940802693
vn -0.36046594381332 -0.932772397995 -0.0000026533894
vn 0.98988616466522 -0.14186412096024 0.00000571605506
vn -0.82803654670715 0.5606741309166 -0.00001891451575
vn 0.36046832799912 0.93277144432068 0.00000041108987
vn 0.00000031059261 -0.00000101473722 1
vn -0.00000091224632 -0.00000054216866 1
vn -0.85963970422745 -0.5109007358551 -0.00001358140889
vn 0.00000004791249 -0.00000078524272 1
vn -0.0000002721419 -0.00000070421828 1
vn -0.00000056350893 -0.00000054895787 1
vn 0.29268097877502 -0.95621013641357 0.00000807461947
vn -0.36046624183655 -0.93277227878571 -0.00000282170777
vn 0.98988610506058 -0.14186452329159 0.00000551858193
vn -0.82803577184677 0.56067526340485 -0.00001849181535
vn 0.36046978831291 0.93277090787888 0.00000302711283
vn 0.00000031059224 -0.00000101473915 1
vn -0.00000091225064 -0.00000054216952 1
vn -0.85964006185532 -0.51090013980865 -0.0000125127408
vn -0.00000005645683 -0.00000010708224 1
vn 0 -0.00000012010732 1
vn -0.00000000000004 -0.00000010708224 1
vn 0.90800130367279 -0.41896730661392 0
vn 0.76834690570831 0.64003366231918 0
vn -0.00000000000009 -0.00000009405717 1
vn -0.00000005389061 -0.00000010221487 -1
vn -0.00000000000004 -0.00000010221487 -1
vn 0 -0.0000001146479 -1
vn -0.00000000000009 -0.00000008978185 -1
vn 0.00000005645675 -0.00000010708224 1
vn -0.9080011844635 -0.41896766424179 0
vn -0.76834642887115 0.64003413915634 0
vn 0.00000005389052 -0.00000010221487 -1
vn 0 -0.0000001146479 -1
vn -0.00302017154172 -0.0000003080745 0.99999541044235
vn -0.15342503786087 -0.98816031217575 0
vn -0.15342515707016 0.98816025257111 0
vn 1 0 0
vn 0.00302017480135 -0.00000030807453 0.99999541044235
vn 0.15342512726784 -0.98816025257111 0.00000097702252
vn 0.1534252166748 0.98816025257111 0.00000097702218
vn -0.00000036813591 -0.00000065913213 1
vn -0.00000063487261 -0.00000046457933 1
vn -0.00000006259025 -0.00000078420317 1
vn -0.48761481046677 -0.8730588555336 -0.0000044611088
vn -0.92274916172028 -0.38540104031563 0.00000298690043
vn -0.74130654335022 0.67116665840149 0.00000694546861
vn 0.96024185419083 -0.27916949987412 -0.00001534034345
vn 0.48761159181595 0.87306064367294 -0.00000165187964
vn -0.00000097922725 -0.00000040899002 1
vn 0.00000016533743 -0.00000104823778 1
vn 0.15580517053604 -0.9877877831459 -0.00001000354678
vn 0.00000063487312 -0.00000046457922 1
vn 0.0000003681358 -0.00000065913252 1
vn 0.00000006259004 -0.00000078420368 1
vn 0.92274981737137 -0.38539943099022 0.00001587288534
vn 0.48761543631554 -0.87305849790573 0.00000290773414
vn 0.74130743741989 0.67116558551788 0.00001728071038
vn -0.96024131774902 -0.27917125821114 -0.00001801242797
vn -0.48761159181595 0.87306070327759 -0.00000709985852
vn 0.00000097922725 -0.00000040899002 1
vn -0.00000016533885 -0.00000104823891 1
vn -0.1558054536581 -0.9877877831459 -0.00001129946486
vn 0 0 -1
vn 0 -1 0
vn -1 0.00000832681053 0.00000326432496
vn 1 0 0.00000660707974
vn 1 0.00001362568946 0.00000652864992
vn 0.94331467151642 0.33189979195595 0
vn 0.99998342990875 -0.00575772766024 0
vn 0.91036593914032 -0.4138041138649 0
vn 0.9864005446434 -0.16435933113098 0
# 87 normals

vt 0.7080614566803 0.8707001209259 0
vt 0.71252244710922 0.85536074638367 0
vt 0.67886024713516 0.84557110071182 0
vt 0.67439925670624 0.86091041564941 0
vt 0.71978670358658 0.85747337341309 0
vt 0.71532571315765 0.87281262874603 0
vt 0.66105324029922 0.82015526294708 0
vt 0.64573925733566 0.87281262874603 0
vt 0.63078552484512 0.85093748569489 0
vt 0.63670033216476 0.83059918880463 0
vt 0.57271325588226 0.82301950454712 0
vt 1.94869947433472 0.47877168655396 0
vt 1.98375713825226 0.47870397567749 0
vt 1.98371469974518 0.48626911640167 0
vt 1.94865846633911 0.48607230186462 0
vt 1.91766595840454 0.47875165939331 0
vt 1.91762578487396 0.48589813709259 0
vt 1.82673239707947 0.47870397567749 0
vt 1.89116764068604 0.47875726222992 0
vt 1.89112830162048 0.48574936389923 0
vt 1.82669496536255 0.48538768291473 0
vt 1.97001314163208 0.01483714580536 0
vt 1.98482418060303 0.01300799846649 0
vt 1.97230648994446 0.0048828125 0
vt 1.38983297348022 0.18669617176056 0
vt 1.38983297348022 0.18070507049561 0
vt 1.38085508346558 0.18070507049561 0
vt 1.38085508346558 0.18669629096985 0
vt 1.39853167533875 0.18669629096985 0
vt 1.39853179454803 0.1807051897049 0
vt 1.36317849159241 0.18070507049561 0
vt 1.36317837238312 0.18669617176056 0
vt 1.37187719345093 0.18669629096985 0
vt 1.37187731266022 0.1807051897049 0
vt 1.40874683856964 0.18669629096985 0
vt 1.40874671936035 0.1807051897049 0
vt 1.97783517837524 0.01864314079285 0
vt 1.98100543022156 0.0048828125 0
vt 0.97001314163208 0.01483714580536 0
vt 0.98482412099838 0.01300799846649 0
vt 0.97230648994446 0.0048828125 0
vt 0.38983291387558 0.18669617176056 0
vt 0.3898329436779 0.18070507049561 0
vt 0.3808551132679 0.18070507049561 0
vt 0.3808551132679 0.18669629096985 0
vt 0.39853173494339 0.18669629096985 0
vt 0.39853179454803 0.1807051897049 0
vt 0.36317846179008 0.18070507049561 0
vt 0.36317837238312 0.18669617176056 0
vt 0.37187725305557 0.18669629096985 0
vt 0.37187731266022 0.1807051897049 0
vt 0.40874680876732 0.18669629096985 0
vt 0.40874674916267 0.1807051897049 0
vt 0.97783517837524 0.01864314079285 0
vt 0.98100537061691 0.0048828125 0
vt 0.58711874485016 0.58735328912735 0
vt 0.58711868524551 0.54322212934494 0
vt 0.39583316445351 0.63148456811905 0
vt 0 1 0
vt 0.34473487734795 0.86503827571869 0
vt 0.34473490715027 0.88738697767258 0
vt 0.55540162324905 0.88738691806793 0
vt 0.55540162324905 0.86503827571869 0
vt 0.30060365796089 0.86503827571869 0
vt 0.30060365796089 0.88738697767258 0
vt 0.23165215551853 0.86503827571869 0
vt 0.23165217041969 0.88738697767258 0
vt 0.6400973200798 0.63148456811905 0
vt 0.49177733063698 0.21620917320251 0
vt 0.55238354206085 0.40292990207672 0
vt 0.52961552143097 0.19349718093872 0
vt 0.42667379975319 0.19349718093872 0
vt 1.58711862564087 0.54322212934494 0
vt 1.58711874485016 0.58735328912735 0
vt 1.39583313465118 0.63148456811905 0
vt 1.55540156364441 0.88738691806793 0
vt 1.34473490715027 0.88738697767258 0
vt 1.34473490715027 0.86503827571869 0
vt 1.55540156364441 0.86503827571869 0
vt 1.30060362815857 0.88738697767258 0
vt 1.30060362815857 0.86503827571869 0
vt 1.23165214061737 0.88738697767258 0
vt 1.23165214061737 0.86503827571869 0
vt 1.64009737968445 0.63148456811905 0
vt 1.55238354206085 0.40292990207672 0
vt 1.49177730083466 0.21620917320251 0
vt 1.52961552143097 0.19349718093872 0
vt 1.42667376995087 0.19349718093872 0
vt 0.98912739753723 0.1434428691864 0
vt 0.98600697517395 0.12334501743317 0
vt 0.92284512519836 0.1434428691864 0
vt 0.73508012294769 0.23059964179993 0
vt 0.73509699106216 0.23624300956726 0
vt 0.80137819051743 0.23584735393524 0
vt 0.80136251449585 0.23059964179993 0
vt 0.15908597409725 0.0048828125 0
vt 0.1591028124094 0.01052618026733 0
vt 0.22538402676582 0.01013052463531 0
vt 0.22536842525005 0.0048828125 0
vt 0.99158352613449 0.12247920036316 0
vt 0.99470394849777 0.14257705211639 0
vt 1.98600697517395 0.12334501743317 0
vt 1.98912739753723 0.1434428691864 0
vt 1.92284512519836 0.1434428691864 0
vt 1.80137825012207 0.23584735393524 0
vt 1.73509693145752 0.23624300956726 0
vt 1.73508012294769 0.23059964179993 0
vt 1.80136251449585 0.23059964179993 0
vt 1.2253839969635 0.01013052463531 0
vt 1.15910279750824 0.01052618026733 0
vt 1.15908598899841 0.0048828125 0
vt 1.22536838054657 0.0048828125 0
vt 1.99158358573914 0.12247920036316 0
vt 1.99470400810242 0.14257705211639 0
vt 1.99480199813843 0.03592753410339 0
vt 1.97999095916748 0.03775668144226 0
vt 1.98228430747986 0.02780246734619 0
vt 1.48607611656189 0.14490854740143 0
vt 1.47709834575653 0.14490878582001 0
vt 1.47709822654724 0.13891768455505 0
vt 1.4860759973526 0.13891732692719 0
vt 1.46839952468872 0.1449089050293 0
vt 1.46839940547943 0.13891780376434 0
vt 1.49505388736725 0.1389172077179 0
vt 1.50375270843506 0.13891708850861 0
vt 1.50375270843506 0.14490818977356 0
vt 1.49505400657654 0.14490830898285 0
vt 1.51396775245666 0.13891708850861 0
vt 1.51396775245666 0.14490818977356 0
vt 1.98781311511993 0.04156267642975 0
vt 1.99098312854767 0.02780246734619 0
vt 0.97999101877213 0.03775668144226 0
vt 0.99480199813843 0.03592753410339 0
vt 0.98228424787521 0.02780246734619 0
vt 0.47709822654724 0.13891768455505 0
vt 0.47709834575653 0.14490878582001 0
vt 0.48607614636421 0.14490854740143 0
vt 0.48607602715492 0.13891732692719 0
vt 0.46839937567711 0.13891780376434 0
vt 0.4683994948864 0.1449089050293 0
vt 0.5037527680397 0.14490818977356 0
vt 0.50375270843506 0.13891708850861 0
vt 0.49505385756493 0.1389172077179 0
vt 0.49505394697189 0.14490830898285 0
vt 0.51396781206131 0.14490818977356 0
vt 0.51396769285202 0.13891708850861 0
vt 0.98781311511993 0.04156267642975 0
vt 0.99098312854767 0.02780246734619 0
vt 0.39583340287209 0.26244115829468 0
vt 0.44634854793549 0.26244115829468 0
vt 0.44634854793549 0.25140464305878 0
vt 0.39583316445351 0.25140464305878 0
vt 0.40822276473045 0.27030146121979 0
vt 0.43395906686783 0.27030146121979 0
vt 0.43395906686783 0.24354434013367 0
vt 0.40822276473045 0.24354434013367 0
vt 0.40822276473045 0.28133797645569 0
vt 0.43395906686783 0.28133797645569 0
vt 1.45618367195129 0.35780477523804 0
vt 1.44169771671295 0.36266553401947 0
vt 1.43574452400208 0.34492409229279 0
vt 1.4471470117569 0.33087277412415 0
vt 1.46005129814148 0.32654297351837 0
vt 1.46908795833588 0.35347485542297 0
vt 1.48357391357422 0.34861433506012 0
vt 1.47762107849121 0.33087277412415 0
vt 1.4905252456665 0.32654297351837 0
vt 1.4964781999588 0.34428441524506 0
vt 0.43574458360672 0.34492409229279 0
vt 0.44169774651527 0.36266553401947 0
vt 0.45618373155594 0.35780477523804 0
vt 0.4471470117569 0.33087277412415 0
vt 0.46908795833588 0.35347485542297 0
vt 0.46005123853683 0.32654297351837 0
vt 0.49052527546883 0.32654297351837 0
vt 0.47762104868889 0.33087277412415 0
vt 0.48357397317886 0.34861433506012 0
vt 0.4964781999588 0.34428441524506 0
vt 0.98371469974518 0.48626911640167 0
vt 0.98375713825226 0.47870397567749 0
vt 0.94869941473007 0.47877168655396 0
vt 0.94865846633911 0.48607230186462 0
vt 0.9176658987999 0.47875165939331 0
vt 0.91762578487396 0.48589813709259 0
vt 0.89112830162048 0.48574936389923 0
vt 0.89116758108139 0.47875726222992 0
vt 0.82673245668411 0.47870397567749 0
vt 0.82669496536255 0.48538768291473 0
# 188 texture coordinates

o Valkyrie
usemtl default
f 73/4/2 66/3/2 65/2/1 71/1/1
f 72/6/3 71/1/3 65/2/3 64/5/3
f 75/8/4 67/7/4 66/3/2 73/4/2
f 68/11/6 70/10/5 74/9/5
f 74/9/5 70/10/5 67/7/4 75/8/4
f 73/15/8 71/14/9 72/13/9 76/12/8
f 75/17/10 73/15/8 76/12/8 78/16/10
f 68/21/11 74/20/12 77/19/12 69/18/11
f 74/20/12 75/17/10 78/16/10 77/19/12
f 81/24/15 87/23/14 82/22/13
f 87/28/17 88/27/17 86/26/16 80/25/16
f 80/25/18 86/26/18 84/30/18 82/29/18
f 85/34/19 79/33/19 81/32/19 83/31/19
f 83/36/20 81/35/20 82/29/20 84/30/20
f 82/22/13 87/23/14 80/37/21
f 79/38/22 87/23/14 81/24/15
f 85/34/23 88/27/17 87/28/17 79/33/23
f 91/41/26 97/40/25 92/39/24
f 97/45/28 98/44/28 96/43/27 90/42/27
f 90/42/29 96/43/29 94/47/29 92/46/29
f 95/51/30 89/50/30 91/49/30 93/48/30
f 93/53/31 91/52/31 92/46/31 94/47/31
f 92/39/24 97/40/25 90/54/32
f 89/55/33 97/40/25 91/41/26
f 95/51/34 98/44/28 97/45/28 89/50/34
f 1/58/37 2/57/36 8/56/35
f 1/63/38 4/62/38 3/61/38 2/60/38
f 2/60/3 3/61/3 7/65/3 8/64/3
f 8/64/39 7/65/39 6/67/39 5/66/39
f 5/68/40 1/58/37 8/56/35
f 3/71/43 4/70/42 7/69/41
f 7/69/41 4/70/42 6/72/44
f 1/75/37 12/74/45 9/73/36
f 1/79/46 9/78/46 10/77/46 4/76/46
f 9/78/3 12/81/3 11/80/3 10/77/3
f 12/81/47 5/83/47 6/82/47 11/80/47
f 5/84/40 12/74/45 1/75/37
f 10/87/49 11/86/48 4/85/42
f 11/86/48 6/88/44 4/85/42
f 18/91/50 14/90/50 13/89/50
f 18/95/51 17/94/51 16/93/51 14/92/51
f 17/99/52 18/98/52 13/97/52 15/96/52
f 15/101/53 13/89/53 14/90/53 16/100/53
f 24/104/54 19/103/54 20/102/54
f 24/108/55 20/107/55 22/106/55 23/105/55
f 23/112/56 21/111/56 19/110/56 24/109/56
f 21/114/9 22/113/9 20/102/9 19/103/9
f 27/117/59 28/116/58 33/115/57
f 33/121/60 26/120/61 32/119/61 34/118/60
f 26/120/62 28/123/62 30/122/62 32/119/62
f 31/127/63 29/126/63 27/125/63 25/124/63
f 29/126/64 30/129/64 28/128/64 27/125/64
f 28/116/58 26/130/65 33/115/57
f 25/131/66 27/117/59 33/115/57
f 31/127/67 25/124/67 33/121/60 34/118/60
f 37/134/70 43/133/69 38/132/68
f 43/138/72 44/137/72 42/136/71 36/135/71
f 36/135/73 42/136/73 40/140/73 38/139/73
f 41/144/74 35/143/74 37/142/74 39/141/74
f 39/141/75 37/142/75 38/146/75 40/145/75
f 38/132/68 43/133/69 36/147/76
f 35/148/77 43/133/69 37/134/70
f 41/144/78 44/137/72 43/138/72 35/143/78
f 47/152/79 48/151/79 46/150/79 45/149/79
f 45/149/3 46/150/3 50/154/3 49/153/3
f 48/151/80 47/152/80 52/156/80 51/155/80
f 50/154/1 51/158/1 52/157/1 49/153/1
f 48/162/80 51/161/80 54/160/80 53/159/80
f 53/159/81 55/164/81 46/163/81 48/162/81
f 54/168/82 51/167/82 50/166/82 56/165/82
f 55/164/3 56/165/3 50/166/3 46/163/3
f 47/172/80 57/171/80 58/170/80 52/169/80
f 57/171/83 47/172/83 45/174/83 59/173/83
f 58/178/9 60/177/9 49/176/9 52/175/9
f 59/173/3 45/174/3 49/176/3 60/177/3
f 66/182/84 61/181/84 64/180/53 65/179/53
f 67/184/85 63/183/85 61/181/84 66/182/84
f 68/188/87 69/187/87 62/186/86 70/185/86
f 70/185/86 62/186/86 63/183/85 67/184/85

