# WaveFront *.obj file (generated by CINEMA 4D)

mtllib ./未标题_1.mtl

v -245.27694702148438 199.01011657714844 461.9140625
v -240.15817260742188 205.15814208984375 461.9140625
v -292.27700805664062 104.02217864990234 401.9140625
v -283.38888549804688 129.24398803710938 401.9140625
v -307.84707641601562 4.17038726806641 341.9140625
v -305.4649658203125 42.19377899169922 341.9140625
v -290.94219970703125 -89.79126739501953 281.9140625
v -300.15615844726562 -51.35652160644531 281.9140625
v -246.74270629882812 -172.37667846679688 221.9140625
v -267.23773193359375 -138.58198547363281 221.9140625
v -179.28840637207031 -235.68208312988281 161.9140625
v -209.1123046875 -209.74635314941406 161.9140625
v -96.86157989501953 -274.360595703125 101.91405487060547
v -133.17366027832031 -258.75421142578125 101.91405487060547
v -8.12105274200439 -284.95492553710938 41.91405487060547
v -47.46261596679688 -281.16433715820312 41.91405487060547
v 77.46926879882812 -266.55331420898438 -18.08594703674316
v 38.84548187255859 -274.93963623046875 -18.08594703674316
v 150.97607421875 -222.00956726074219 -78.73430633544922
v 116.84930419921875 -241.8626708984375 -78.73430633544922
v 204.22792053222656 -153.38525390625 -141.97608947753906
v 178.25967407226562 -183.17739868164062 -141.97608947753906
v 223.58526611328125 -82.65150451660156 -197.21522521972656
v 206.99258422851562 -118.66214752197266 -197.21522521972656
v 215.33409118652344 -21.16813659667969 -245.37380981445312
v 208.10035705566406 -60.22732543945312 -245.37380981445312
v 187.94444274902344 25.31362915039062 -287.8072509765625
v 189.37995910644531 -14.47117519378662 -287.8072509765625
v 151.9356689453125 50.36089706420898 -320.03079223632812
v 159.95431518554688 11.28574085235596 -320.03079223632812
v 113.69319915771484 60.6092529296875 -347.26272583007812
v 127.10992431640625 23.0382080078125 -347.26272583007812
v 77.42584991455078 63.76061248779297 -377.8223876953125
v 96.55509948730469 28.80878829956055 -377.8223876953125
v 44.73455047607422 62.11444473266602 -416.36859130859375
v 70.32743072509766 31.71392250061035 -416.36859130859375
v 17.72417068481445 56.73104095458984 -466.8946533203125
v 48.6910285949707 34.47866439819336 -466.8946533203125
v 0.59798061847687 46.28347778320312 -530.89801025390625
v 25.85207939147949 37.58534240722656 -530.89801025390625
v -4 35.09243774414062 -596.89801025390625
v 4 35.09243774414062 -596.89801025390625
v -271.05514526367188 151.99818420410156 431.9140625
v 209.34701538085938 -8.35643863677979 -256.49639892578125
v -263.2452392578125 168.05033874511719 431.9140625
v -231.09527587890625 -189.5970458984375 206.9140625
v -304.38623046875 54.11798477172852 371.9140625
v -197.36813354492188 -221.24974060058594 176.9140625
v -297.64566040039062 87.04054260253906 371.9140625
v -303.12380981445312 -43.93584823608398 311.9140625
v 195.65219116210938 14.88444423675537 -277.713134765625
v -306.29623413085938 -4.5424976348877 311.9140625
v -272.02798461914062 -132.98641967773438 251.9140625
v 179.25279235839844 32.77754974365234 -296.40390014648438
v -287.06149291992188 -96.43653106689453 251.9140625
v -215.44784545898438 -206.81739807128906 191.9140625
v -159.34890747070312 -247.01315307617188 146.9140625
v -240.91046142578125 -176.59231567382812 191.9140625
v -139.40939331054688 -258.34423828125 131.9140625
v -118.13549041748047 -266.3524169921875 116.91405487060547
v -172.87583923339844 -237.3228759765625 131.9140625
v -52.69573974609375 -283.2879638671875 71.91405487060547
v 161.24839782714844 45.30118179321289 -312.51565551757812
v -90.97836303710938 -273.47262573242188 71.91405487060547
v 35.65328979492188 -279.18997192382812 11.91405391693115
v 142.36465454101562 53.57747268676758 -326.88037109375
v -3.79911231994629 -281.51553344726562 11.91405391693115
v 116.16885375976562 -247.60507202148438 -48.0859489440918
v -74.77865600585938 -278.82427978515625 86.91405487060547
v 79.30448913574219 -261.85003662109375 -48.0859489440918
v 181.11494445800781 -189.43112182617188 -110.67938232421875
v -30.40839576721191 -284.1214599609375 56.91405487060547
v 150.75132751464844 -214.59346008300781 -110.67938232421875
v 217.9573974609375 -117.38747406005859 -170.67938232421875
v 123.24341583251953 58.7016487121582 -340.496337890625
v 196.62347412109375 -150.74948120117188 -170.67938232421875
v 222.39335632324219 -50.39105606079102 -222.00962829589844
v 104.44284057617188 61.74206924438477 -354.52825927734375
v 210.51686096191406 -88.267822265625 -222.00962829589844
v 203.35993957519531 4.45525932312012 -267.6190185546875
v 13.76611804962158 -282.07244873046875 26.91405296325684
v 200.6470947265625 -35.20146942138672 -267.6190185546875
v 170.56114196777344 40.2414665222168 -305.00051879882812
v 56.561279296875 -272.87164306640625 -3.08594655990601
v 175.52188110351562 0.682637155056 -305.00051879882812
v 132.79364013671875 56.79404449462891 -333.72994995117188
v 86.30916595458984 63.3177490234375 -369.80810546875
v 143.55870056152344 18.3639087677002 -333.72994995117188
v 95.19248199462891 62.87488174438477 -361.7938232421875
v 68.97675323486328 63.59836578369141 -386.83499145507812
v 111.38285064697266 26.42970657348633 -361.7938232421875
v 60.52765274047852 63.43611907958984 -395.84759521484375
v 96.81906127929688 -257.07919311523438 -33.0859489440918
v 82.80426025390625 30.44583320617676 -395.84759521484375
v 30.28318786621094 60.00862121582031 -439.88455200195312
v 133.57246398925781 -234.80731201171875 -63.41012573242188
v 59.32167816162109 32.98613739013672 -439.88455200195312
v 7.60810899734497 51.89408493041992 -497.89801025390625
v 52.631103515625 62.7752799987793 -406.10809326171875
v 37.33950042724609 36.40769577026367 -497.89801025390625
v -2.64323735237122 40.68494033813477 -563.89801025390625
v 37.50886917114258 61.0615348815918 -428.1265869140625
v 14.81376457214355 36.82370758056641 -563.89801025390625
v 166.04551696777344 -205.7203369140625 -94.70684051513672
v 192.67143249511719 -171.40818786621094 -126.32773590087891
v 24.0036792755127 58.36983108520508 -453.38961791992188
v 12.66613960266113 54.31256103515625 -482.39633178710938
v 211.09266662597656 -135.38636779785156 -156.32774353027344
v 220.77133178710938 -100.01948547363281 -183.94731140136719
v 4.10304498672485 49.08877944946289 -514.39801025390625
v -1.02262830734253 43.48420715332031 -547.39801025390625
v 222.98930358886719 -66.52127838134766 -209.6124267578125
v 218.86372375488281 -35.77959823608398 -233.69171142578125
v -3.32161855697632 37.88868713378906 -580.39801025390625
v -277.14959716796875 -117.50925445556641 236.9140625
v -293.60882568359375 -73.89653015136719 266.9140625
v -225.01138305664062 -193.16934204101562 176.9140625
v -254.0740966796875 -157.587158203125 206.9140625
v -153.02474975585938 -248.03854370117188 116.91405487060547
v -190.99407958984375 -223.53462219238281 146.9140625
v -69.22048950195312 -277.3184814453125 56.91405487060547
v -112.07601165771484 -266.1134033203125 86.91405487060547
v 20.33292198181152 37.20452499389648 -547.39801025390625
v -258.16604614257812 175.504150390625 446.9140625
v 17.52318382263184 -278.22760009765625 -3.08594655990601
v 208.75473022460938 -103.46498107910156 -209.6124267578125
v -25.6308650970459 -281.33993530273438 26.91405296325684
v -281.66607666015625 128.01017761230469 416.9140625
v 98.07689666748047 -251.85635375976562 -63.41012573242188
v 195.01351928710938 -24.83632278442383 -277.713134765625
v 204.37371826171875 -47.71439743041992 -256.49639892578125
v -273.31707763671875 148.64717102050781 416.9140625
v 167.73809814453125 5.9841890335083 -312.51565551757812
v -251.70172119140625 186.60423278808594 446.9140625
v 182.450927734375 -6.89426898956299 -296.40390014648438
v -298.33163452148438 79.07008361816406 386.9140625
v 59.07498550415039 -268.39483642578125 -33.0859489440918
v 135.33430480957031 20.70105743408203 -340.496337890625
v -306.11666870117188 29.14418601989746 356.9140625
v 164.5054931640625 -198.88543701171875 -126.32773590087891
v 151.75650024414062 14.82482433319092 -326.88037109375
v 103.96897888183594 27.61924743652344 -369.80810546875
v -301.5552978515625 64.61715698242188 356.9140625
v 119.24639129638672 24.73395729064941 -354.52825927734375
v -290.51727294921875 108.14226531982422 386.9140625
v -305.48544311523438 -19.88273048400879 326.9140625
v 133.80030822753906 -228.22805786132812 -94.70684051513672
v 76.56584930419922 31.07987785339355 -406.10809326171875
v -297.03298950195312 -66.86355590820312 296.9140625
v 201.80802917480469 -134.705810546875 -183.94731140136719
v 89.67967987060547 29.62730979919434 -386.83499145507812
v 54.00635528564453 33.73240280151367 -453.38961791992188
v -303.2261962890625 -27.94951057434082 296.9140625
v 64.82455444335938 32.35002899169922 -428.1265869140625
v -305.88058471679688 18.82563972473145 326.9140625
v -281.485107421875 -111.38884735107422 266.9140625
v 187.44157409667969 -166.96343994140625 -156.32774353027344
v 31.59578895568848 36.99651718139648 -514.39801025390625
v -259.38534545898438 -152.68154907226562 236.9140625
v 209.30860900878906 -74.24757385253906 -233.69171142578125
v 43.01526260375977 35.44318008422852 -482.39633178710938
v 9.40688228607178 35.95807266235352 -580.39801025390625
# 162 vertices

vn 0.64347589015961 0.69127631187439 -0.32874894142151
vn 0.60837346315384 0.74087566137314 -0.28457874059677
vn 0.56462246179581 0.78608745336533 -0.25153118371964
vn 0.69065511226654 0.58336049318314 -0.42741787433624
vn 0.67286163568497 0.63910281658173 -0.37256509065628
vn -0.53034698963165 -0.84371066093445 -0.08297238498926
vn -0.4630990922451 -0.88233882188797 -0.08377014100552
vn -0.39369297027588 -0.9151354432106 -0.08679243922234
vn -0.6542529463768 -0.75184500217438 -0.08174428343773
vn -0.59376049041748 -0.80037891864777 -0.08271679282188
vn -0.89713537693024 0.43821305036545 0.05583372712135
vn -0.92096012830734 0.37883013486862 0.09121473878622
vn -0.94440317153931 0.32457080483437 0.05250195413828
vn 0.80597430467606 -0.51842361688614 -0.2857311964035
vn 0.8311755657196 -0.45461693406105 -0.32011035084724
vn 0.85089391469955 -0.39475825428963 -0.34662002325058
vn -0.81351155042648 0.56863880157471 -0.12185592204332
vn -0.85220712423325 0.52241343259811 -0.02876135148108
vn 0.73255753517151 -0.64216488599777 -0.22579561173916
vn 0.7734722495079 -0.57943969964981 -0.25688576698303
vn -0.24762363731861 -0.96425884962082 -0.09427327662706
vn -0.1717563867569 -0.98016875982285 -0.09883797168732
vn -0.0958059579134 -0.98963886499405 -0.10694011300802
vn 0.66660749912262 0.29669392108917 -0.68381810188293
vn 0.67917788028717 0.33529967069626 -0.65291005373001
vn 0.69121241569519 0.3792462348938 -0.61514031887054
vn -0.32121104001999 -0.94268018007278 -0.09042996168137
vn 0.63883227109909 0.22836552560329 -0.73467171192169
vn 0.65117251873016 0.25991335511208 -0.71303534507751
vn -0.98033845424652 0.19729635119438 0.00327430386096
vn -0.9914299249649 0.12967528402805 -0.01584416814148
vn -0.99761360883713 0.06076358631253 -0.032785192132
vn 0.87090134620666 -0.2754967212677 -0.40697956085205
vn 0.87144649028778 -0.21683871746063 -0.43995672464371
vn 0.86911898851395 -0.16318109631538 -0.46690911054611
vn -0.96442878246307 0.26329734921455 0.02348567917943
vn 0.86375254392624 -0.33310931921005 -0.37811341881752
vn 0.45557543635368 0.86846488714218 -0.1954987347126
vn 0.39297068119049 0.90296012163162 -0.17388792335987
vn 0.33016449213028 0.9298694729805 -0.16227808594704
vn 0.51378029584885 0.82972609996796 -0.21813851594925
vn 0.05793764442205 -0.99111610651016 -0.11971679329872
vn 0.1349161118269 -0.98303163051605 -0.12428396940231
vn 0.20996685326099 -0.96941244602203 -0.12709632515907
vn -0.01841326244175 -0.99308848381042 -0.11591451615095
vn -0.99509501457214 -0.08175004273653 -0.05570356547832
vn -0.98587852716446 -0.15694853663445 -0.05840103328228
vn -0.97095429897308 -0.23254401981831 -0.05631164088845
vn 0.84802174568176 -0.0607023127377 -0.52647346258163
vn 0.82900577783585 -0.0138414753601 -0.55906867980957
vn 0.80132830142975 0.02568581700325 -0.59767311811447
vn -0.99877017736435 -0.00957592669874 -0.04864556714892
vn 0.86063808202744 -0.10919832438231 -0.49737092852592
vn 0.35648790001869 -0.92322516441345 -0.14342834055424
vn 0.42768776416779 -0.89027208089828 -0.1565208286047
vn 0.49524196982384 -0.85124897956848 -0.17352405190468
vn 0.70279765129089 0.47589600086212 -0.52877068519592
vn 0.70060640573502 0.52810299396515 -0.47985199093819
vn 0.28474536538124 -0.94963812828064 -0.13079561293125
vn 0.69893229007721 0.42511388659477 -0.57512766122818
vn -0.92345607280731 -0.37958857417107 -0.05604869872332
vn -0.89108914136887 -0.45010259747505 -0.05803287029266
vn -0.85330593585968 -0.51716262102127 -0.06642117351294
vn 0.73361164331436 0.08952084183693 -0.67364674806595
vn 0.69559741020203 0.11433251202106 -0.7092759013176
vn 0.66968166828156 0.13573071360588 -0.73013943433762
vn -0.95006000995636 -0.30726188421249 -0.05455419421196
vn 0.76636153459549 0.06125795096159 -0.63948220014572
vn 0.21400021016598 0.96553403139114 -0.14814856648445
vn 0.12822349369526 0.98174923658371 -0.14045332372189
vn 0.07485128939152 0.98811763525009 -0.1342418640852
vn 0.2734894156456 0.94942760467529 -0.15424272418022
vn 0.62495148181915 -0.75603401660919 -0.19454611837864
vn 0.68398255109787 -0.70111817121506 -0.2014971524477
vn 0.56204289197922 -0.80501443147659 -0.18989336490631
vn -0.76265299320221 -0.64207309484482 -0.07811883836985
vn -0.71023613214493 -0.69925278425217 -0.08130344003439
vn 0.63346999883652 0.17672909796238 -0.75331437587738
vn 0.62468832731247 0.19829694926739 -0.75527662038803
vn -0.81001389026642 -0.581547498703 -0.07536552101374
vn 0.6408611536026 0.15486612915993 -0.751873254776
# 81 normals

vt 0.5 0.875 0
vt 0.5 0.88750004768372 0
vt 0.75 0.88750004768372 0
vt 0.75 0.875 0
vt 0.5 0.90000003576279 0
vt 0.75 0.90000003576279 0
vt 0.5 0.85000002384186 0
vt 0.5 0.86250007152557 0
vt 0.75 0.86250007152557 0
vt 0.75 0.85000002384186 0
vt 0.5 0.27500009536743 0
vt 0.5 0.28750014305115 0
vt 0.75 0.28750014305115 0
vt 0.75 0.27500009536743 0
vt 0.5 0.30000007152557 0
vt 0.75 0.30000007152557 0
vt 0.5 0.25 0
vt 0.5 0.26250004768372 0
vt 0.75 0.26250004768372 0
vt 0.75 0.25 0
vt 0.5 0.02500009536743 0
vt 0.5 0.03750014305115 0
vt 0.75 0.03750014305115 0
vt 0.75 0.02500009536743 0
vt 0.5 0.05000007152557 0
vt 0.75 0.05000007152557 0
vt 0.5 0.52500003576279 0
vt 0.5 0.53750002384186 0
vt 0.75 0.53750002384186 0
vt 0.75 0.52500003576279 0
vt 0.5 0.55000001192093 0
vt 0.75 0.55000001192093 0
vt 0.5 0 0
vt 0.5 0.01250004768372 0
vt 0.75 0.01250004768372 0
vt 0.75 0 0
vt 0.5 0.5 0
vt 0.5 0.51250004768372 0
vt 0.75 0.51250004768372 0
vt 0.75 0.5 0
vt 0.5 0.32500004768372 0
vt 0.5 0.33750009536743 0
vt 0.75 0.33750009536743 0
vt 0.75 0.32500004768372 0
vt 0.5 0.35000002384186 0
vt 0.75 0.35000002384186 0
vt 0.5 0.77499997615814 0
vt 0.5 0.78750002384186 0
vt 0.75 0.78750002384186 0
vt 0.75 0.77499997615814 0
vt 0.5 0.80000001192093 0
vt 0.75 0.80000001192093 0
vt 0.5 0.31250011920929 0
vt 0.75 0.31250011920929 0
vt 0.5 0.75 0
vt 0.5 0.76250004768372 0
vt 0.75 0.76250004768372 0
vt 0.75 0.75 0
vt 0.5 0.07500004768372 0
vt 0.5 0.08750009536743 0
vt 0.75 0.08750009536743 0
vt 0.75 0.07500004768372 0
vt 0.5 0.10000002384186 0
vt 0.75 0.10000002384186 0
vt 0.5 0.57500004768372 0
vt 0.5 0.58750003576279 0
vt 0.75 0.58750003576279 0
vt 0.75 0.57500004768372 0
vt 0.5 0.60000002384186 0
vt 0.75 0.60000002384186 0
vt 0.5 0.06250011920929 0
vt 0.75 0.06250011920929 0
vt 0.5 0.56250005960464 0
vt 0.75 0.56250005960464 0
vt 0.5 0.92500001192093 0
vt 0.5 0.9375 0
vt 0.75 0.9375 0
vt 0.75 0.92500001192093 0
vt 0.5 0.94999998807907 0
vt 0.75 0.94999998807907 0
vt 0.5 0.91250002384186 0
vt 0.75 0.91250002384186 0
vt 0.5 0.375 0
vt 0.5 0.38750004768372 0
vt 0.75 0.38750004768372 0
vt 0.75 0.375 0
vt 0.5 0.39999997615814 0
vt 0.75 0.39999997615814 0
vt 0.5 0.36250007152557 0
vt 0.75 0.36250007152557 0
vt 0.5 0.125 0
vt 0.5 0.13750004768372 0
vt 0.75 0.13750004768372 0
vt 0.75 0.125 0
vt 0.5 0.14999997615814 0
vt 0.75 0.14999997615814 0
vt 0.5 0.62500005960464 0
vt 0.5 0.63750004768372 0
vt 0.75 0.63750004768372 0
vt 0.75 0.62500005960464 0
vt 0.5 0.65000003576279 0
vt 0.75 0.65000003576279 0
vt 0.5 0.11250007152557 0
vt 0.75 0.11250007152557 0
vt 0.5 0.61250007152557 0
vt 0.75 0.61250007152557 0
vt 0.5 0.42500007152557 0
vt 0.5 0.43750011920929 0
vt 0.75 0.43750011920929 0
vt 0.75 0.42500007152557 0
vt 0.5 0.45000004768372 0
vt 0.75 0.45000004768372 0
vt 0.5 0.82500004768372 0
vt 0.5 0.83750003576279 0
vt 0.75 0.83750003576279 0
vt 0.75 0.82500004768372 0
vt 0.5 0.41250002384186 0
vt 0.75 0.41250002384186 0
vt 0.5 0.8125 0
vt 0.75 0.8125 0
vt 0.5 0.17500007152557 0
vt 0.5 0.18750011920929 0
vt 0.75 0.18750011920929 0
vt 0.75 0.17500007152557 0
vt 0.5 0.20000004768372 0
vt 0.75 0.20000004768372 0
vt 0.5 0.67500001192093 0
vt 0.5 0.6875 0
vt 0.75 0.6875 0
vt 0.75 0.67500001192093 0
vt 0.5 0.69999998807907 0
vt 0.75 0.69999998807907 0
vt 0.5 0.16250002384186 0
vt 0.75 0.16250002384186 0
vt 0.5 0.66250002384186 0
vt 0.75 0.66250002384186 0
vt 0.5 0.97500002384186 0
vt 0.5 0.98750001192093 0
vt 0.75 0.98750001192093 0
vt 0.75 0.97500002384186 0
vt 0.5 1 0
vt 0.75 1 0
vt 0.5 0.96249997615814 0
vt 0.75 0.96249997615814 0
vt 0.5 0.47500002384186 0
vt 0.5 0.48750007152557 0
vt 0.75 0.48750007152557 0
vt 0.75 0.47500002384186 0
vt 0.5 0.46250009536743 0
vt 0.75 0.46250009536743 0
vt 0.5 0.22500002384186 0
vt 0.5 0.23750007152557 0
vt 0.75 0.23750007152557 0
vt 0.75 0.22500002384186 0
vt 0.5 0.72500002384186 0
vt 0.5 0.73750001192093 0
vt 0.75 0.73750001192093 0
vt 0.75 0.72500002384186 0
vt 0.5 0.21250009536743 0
vt 0.75 0.21250009536743 0
vt 0.5 0.71250003576279 0
vt 0.75 0.71250003576279 0
# 162 texture coordinates

o 平面.1
usemtl default
f 97/4/1 152/3/2 106/2/2 95/1/1
f 152/3/2 38/6/3 37/5/3 106/2/2
f 36/10/4 154/9/5 102/8/5 35/7/4
f 154/9/5 97/4/1 95/1/1 102/8/5
f 61/14/6 119/13/7 60/12/7 59/11/6
f 119/13/7 14/16/8 13/15/8 60/12/7
f 12/20/9 120/19/10 57/18/10 11/17/9
f 120/19/10 61/14/6 59/11/6 57/18/10
f 45/24/11 132/23/12 128/22/12 43/21/11
f 132/23/12 4/26/13 3/25/13 128/22/12
f 76/30/14 150/29/15 109/28/15 74/27/14
f 150/29/15 24/32/16 23/31/16 109/28/15
f 2/36/17 134/35/18 124/34/18 1/33/17
f 134/35/18 45/24/11 43/21/11 124/34/18
f 22/40/19 157/39/20 108/38/20 21/37/19
f 157/39/20 76/30/14 74/27/14 108/38/20
f 64/44/21 121/43/22 72/42/22 62/41/21
f 121/43/22 16/46/23 15/45/23 72/42/22
f 91/50/24 142/49/25 87/48/25 89/47/24
f 142/49/25 34/52/26 33/51/26 87/48/25
f 14/16/8 122/54/27 69/53/27 13/15/8
f 122/54/27 64/44/21 62/41/21 69/53/27
f 32/58/28 144/57/29 78/56/29 31/55/28
f 144/57/29 91/50/24 89/47/24 78/56/29
f 49/62/30 143/61/31 139/60/31 47/59/30
f 143/61/31 6/64/32 5/63/32 139/60/31
f 79/68/33 160/67/34 113/66/34 77/65/33
f 160/67/34 26/70/35 25/69/35 113/66/34
f 4/26/13 145/72/36 136/71/36 3/25/13
f 145/72/36 49/62/30 47/59/30 136/71/36
f 24/32/16 126/74/37 112/73/37 23/31/16
f 126/74/37 79/68/33 77/65/33 112/73/37
f 100/78/38 158/77/39 110/76/39 98/75/38
f 158/77/39 40/80/40 39/79/40 110/76/39
f 38/6/3 161/82/41 107/81/41 37/5/3
f 161/82/41 100/78/38 98/75/38 107/81/41
f 67/86/42 125/85/43 84/84/43 65/83/42
f 125/85/43 18/88/44 17/87/44 84/84/43
f 16/46/23 127/90/45 81/89/45 15/45/23
f 127/90/45 67/86/42 65/83/42 81/89/45
f 52/94/46 153/93/47 149/92/47 50/91/46
f 153/93/47 8/96/48 7/95/48 149/92/47
f 82/100/49 130/99/50 51/98/50 80/97/49
f 130/99/50 28/102/51 27/101/51 51/98/50
f 6/64/32 155/104/52 146/103/52 5/63/32
f 155/104/52 52/94/46 50/91/46 146/103/52
f 26/70/35 131/106/53 44/105/53 25/69/35
f 131/106/53 82/100/49 80/97/49 44/105/53
f 70/110/54 129/109/55 96/108/55 68/107/54
f 129/109/55 20/112/56 19/111/56 96/108/55
f 94/116/57 148/115/58 99/114/58 92/113/57
f 148/115/58 36/10/4 35/7/4 99/114/58
f 18/88/44 137/118/59 93/117/59 17/87/44
f 137/118/59 70/110/54 68/107/54 93/117/59
f 34/52/26 151/120/60 90/119/60 33/51/26
f 151/120/60 94/116/57 92/113/57 90/119/60
f 55/124/61 115/123/62 159/122/62 53/121/61
f 115/123/62 10/126/63 9/125/63 159/122/62
f 85/130/64 133/129/65 63/128/65 83/127/64
f 133/129/65 30/132/66 29/131/66 63/128/65
f 8/96/48 116/134/67 156/133/67 7/95/48
f 116/134/67 55/124/61 53/121/61 156/133/67
f 28/102/51 135/136/68 54/135/68 27/101/51
f 135/136/68 85/130/64 83/127/64 54/135/68
f 103/140/69 162/139/70 114/138/70 101/137/69
f 162/139/70 42/142/71 41/141/71 114/138/70
f 40/80/40 123/144/72 111/143/72 39/79/40
f 123/144/72 103/140/69 101/137/69 111/143/72
f 73/148/73 140/147/74 105/146/74 71/145/73
f 140/147/74 22/40/19 21/37/19 105/146/74
f 20/112/56 147/150/75 104/149/75 19/111/56
f 147/150/75 73/148/73 71/145/73 104/149/75
f 58/154/76 117/153/77 48/152/77 56/151/76
f 117/153/77 12/20/9 11/17/9 48/152/77
f 88/158/78 138/157/79 75/156/79 86/155/78
f 138/157/79 32/58/28 31/55/28 75/156/79
f 10/126/63 118/160/80 46/159/80 9/125/63
f 118/160/80 58/154/76 56/151/76 46/159/80
f 30/132/66 141/162/81 66/161/81 29/131/66
f 141/162/81 88/158/78 86/155/78 66/161/81

